<svg width="21" height="18" viewBox="0 0 21 18" fill="none" xmlns="http://www.w3.org/2000/svg">
<path d="M18.7535 0H2.11292C1.64417 0 1.24703 0.222512 0.921509 0.667536C0.595988 1.11256 0.433228 1.62605 0.433228 2.208V15.3533C0.433228 15.9353 0.595988 16.4488 0.921509 16.8938C1.24703 17.3388 1.64417 17.5613 2.11292 17.5613H18.7535C19.2223 17.5613 19.6194 17.3388 19.9449 16.8938C20.2705 16.4488 20.4332 15.9353 20.4332 15.3533V2.208C20.4332 1.62605 20.2705 1.11256 19.9449 0.667536C19.6194 0.222512 19.2223 0 18.7535 0ZM17.191 2.208L10.4332 7.4456L3.67542 2.208H17.191ZM2.11292 15.3533V3.54308L10.0035 9.7563C10.0556 9.82477 10.1989 9.859 10.4332 9.859C10.6676 9.859 10.8108 9.82477 10.8629 9.7563L18.7535 3.54308V15.3533H2.11292Z" fill="white"/>
</svg>
